<?xml version="1.0" encoding="UTF-8"?>
<svg xmlns="http://www.w3.org/2000/svg" width="136" height="26" viewBox="0 0 136 26" fill="none">
  <path d="M92.8864 20.1374C93.4651 20.6019 94.6227 20.9558 95.8601 20.9779C98.4547 21 100.351 19.6509 100.351 17.1738C100.351 15.6698 99.2331 14.8073 98.1553 14.2101C97.377 13.7899 96.9778 13.4139 96.9778 12.9716C96.9778 12.3744 97.4767 12.0205 98.2551 12.0205C99.0934 12.0205 99.7919 12.2859 100.191 12.485L100.89 10.2291C100.411 9.94155 99.5125 9.67615 98.3749 9.67615C95.8601 9.67615 94.0838 11.158 94.0838 13.4139C94.0838 14.763 95.0219 15.6698 96.1395 16.2891C97.0377 16.7757 97.357 17.1517 97.357 17.6825C97.357 18.2133 96.9379 18.6556 96.1196 18.6556C95.1815 18.6556 94.1437 18.2133 93.5849 17.9036L92.8864 20.1374Z" fill="white"></path>
  <path d="M103.983 7.88468L103.624 9.91943H102.367L101.968 12.3523H103.205L102.467 16.643C102.307 17.4834 102.247 18.0806 102.247 18.6556C102.247 20.0269 103.065 21 104.802 21C105.4 21 106.119 20.9115 106.498 20.7567L106.818 18.2575C106.578 18.3017 106.279 18.3017 106.039 18.3017C105.4 18.3017 105.201 17.9258 105.201 17.3949C105.201 17.019 105.281 16.4439 105.361 16.0237L106.019 12.3523H108.095L108.534 9.91943H106.438L106.937 7L103.983 7.88468Z" fill="white"></path>
  <path d="M114.337 9.67615C110.865 9.67615 108.509 12.7725 108.509 16.5103C108.509 19.2085 110.166 21 112.641 21C116.014 21 118.469 18.1027 118.469 14.1438C118.469 11.6667 116.952 9.67615 114.337 9.67615ZM113.958 12.109C115.096 12.109 115.495 13.1706 115.495 14.1659C115.495 16.0016 114.597 18.5671 113.06 18.5671C112.042 18.5671 111.483 17.7267 111.483 16.466C111.483 14.7852 112.301 12.109 113.958 12.109Z" fill="white"></path>
  <path d="M122.093 20.7567L122.771 16.7314C123.131 14.6082 123.989 12.7946 125.825 12.7946C125.985 12.7946 126.144 12.7946 126.284 12.8167L126.843 9.72038C126.663 9.69826 126.484 9.69826 126.304 9.69826C124.967 9.69826 123.889 10.7156 123.191 12.1532H123.131C123.211 11.4013 123.25 10.6714 123.31 9.94155H120.816C120.716 10.8705 120.596 12.684 120.317 14.3207L119.219 20.7567H122.093Z" fill="white"></path>
  <path d="M134.469 17.8373C133.691 18.2575 132.793 18.5229 131.735 18.5229C130.897 18.5229 130.238 18.2354 129.859 17.6825C129.659 17.3728 129.56 16.8863 129.54 16.5766C133.471 16.6872 135.886 15.6919 135.886 12.9494C135.886 10.9368 134.469 9.69826 132.493 9.69826C128.961 9.69826 126.805 13.1264 126.805 16.4218C126.805 19.2528 128.242 21 131.017 21C132.114 21 133.531 20.7788 134.669 20.1374L134.469 17.8373ZM133.192 12.9273C133.192 13.9447 132.074 14.2765 129.819 14.2543C130.019 13.2591 130.797 12.0205 132.134 12.0205C132.793 12.0205 133.192 12.3965 133.192 12.9273Z" fill="white"></path>
  <path d="M31.1153 14.3766C30.3512 13.9741 29.9496 13.6299 29.9496 13.1689C29.9496 12.5651 30.4912 12.1847 31.3583 12.1847C32.0095 12.1958 32.652 12.3326 33.249 12.5872L33.9533 10.4838C33.9533 10.4838 33.3087 9.99269 31.3974 9.99269C28.7406 9.98666 26.887 11.4802 26.887 13.5715C26.887 14.751 27.752 15.6548 28.8992 16.3049C29.8239 16.8162 30.1452 17.1886 30.1452 17.7139C30.1452 18.2835 29.6839 18.7364 28.8189 18.7364C27.9479 18.7024 27.0955 18.4804 26.3227 18.0863L25.5792 20.1917C25.5792 20.1917 26.7058 20.9183 28.5758 20.9183C31.3171 20.9183 33.2716 19.61 33.2716 17.2409C33.3087 15.9446 32.3036 15.0389 31.1153 14.3766Z" fill="white"></path>
  <path d="M42.0203 9.94898C40.6713 9.94898 39.6251 10.579 38.8012 11.523L38.7601 11.5029L39.9278 5.52075H36.8694L33.9119 20.7196H36.9497L37.9568 15.5306C38.3584 13.5721 39.3841 12.3644 40.35 12.3644C41.0338 12.3644 41.2954 12.8173 41.2954 13.4654C41.2987 13.9079 41.2518 14.3494 41.1553 14.7818L40.0081 20.7398H43.046L44.2323 14.6047C44.37 13.9643 44.4445 13.3125 44.4547 12.6582C44.4939 10.9554 43.6103 9.94898 42.0203 9.94898Z" fill="white"></path>
  <path d="M51.3748 9.94873C47.713 9.94873 45.2786 13.1693 45.2786 16.7722C45.2786 19.0729 46.7203 20.9408 49.4636 20.9408C53.0657 20.9408 55.4795 17.7947 55.4795 14.1173C55.5001 11.9716 54.2314 9.94873 51.3748 9.94873ZM49.8858 18.6401C48.8395 18.6401 48.4173 17.7746 48.4173 16.6937C48.4173 14.9828 49.3235 12.2112 50.9732 12.2112C52.0586 12.2112 52.4005 13.1149 52.4005 14.0006C52.4005 15.8463 51.4964 18.6381 49.8858 18.6381V18.6401Z" fill="white"></path>
  <path d="M63.2876 9.94873C61.228 9.94873 60.0685 11.718 60.0685 11.718H60.0294L60.2106 10.1259H57.5147C57.3726 11.2088 57.1316 12.8392 56.8968 14.0791L54.7837 24.9322H57.8215L58.666 20.5282H58.7277C58.7277 20.5282 59.3456 20.9307 60.5175 20.9307C64.0991 20.9307 66.4325 17.3519 66.4325 13.7349C66.4325 11.7361 65.5201 9.94873 63.2876 9.94873ZM60.3898 18.6965C59.9349 18.7023 59.4929 18.5488 59.1438 18.2637L59.6463 15.4921C60.0088 13.6443 60.9953 12.4044 62.0416 12.4044C62.9663 12.4044 63.2485 13.2498 63.2485 14.0368C63.2485 15.9449 62.0807 18.6965 60.3898 18.6965Z" fill="white"></path>
  <path d="M70.7712 5.68166C70.5394 5.68056 70.3098 5.72467 70.0956 5.8114C69.8815 5.89813 69.6873 6.02574 69.5242 6.18675C69.3612 6.34777 69.2327 6.53895 69.1462 6.74911C69.0597 6.95928 69.017 7.18419 69.0206 7.41068C69.0206 8.29633 69.5849 8.90621 70.4499 8.90621H70.4891C70.725 8.91482 70.9602 8.87608 71.1802 8.79239C71.4002 8.70871 71.6003 8.58185 71.7682 8.41964C71.9361 8.25744 72.0683 8.06333 72.1564 7.84929C72.2446 7.63526 72.2869 7.40583 72.2809 7.17518C72.2994 6.28954 71.696 5.68166 70.7712 5.68166Z" fill="white"></path>
  <path d="M66.5046 20.7236H69.5631L71.635 10.1824H68.556L66.5046 20.7236Z" fill="white"></path>
  <path d="M79.3609 10.1641H77.2499L77.3488 9.67299C77.53 8.65048 78.1334 7.7447 79.1612 7.7447C79.4891 7.74514 79.8147 7.79818 80.125 7.9017L80.7285 5.58292C80.7285 5.58292 80.2054 5.3273 79.0808 5.3273C78.0028 5.29888 76.9498 5.64716 76.111 6.30956C75.0647 7.17507 74.5807 8.41296 74.3397 9.67299L74.2574 10.1641H72.8486L72.4038 12.4044H73.8125L72.1978 20.7214H75.2357L76.8442 12.4044H78.9367L79.3609 10.1641Z" fill="white"></path>
  <path d="M86.6858 10.1846C86.6858 10.1846 84.7746 14.8624 83.9384 17.4187H83.8972C83.8375 16.5934 83.1537 10.1846 83.1537 10.1846H79.9449L81.7759 19.8582C81.8218 20.0233 81.8004 20.1994 81.7161 20.3494C81.3186 21.0642 80.7541 21.6773 80.0685 22.1388C79.5444 22.5013 78.9684 22.7862 78.3591 22.9842L79.2035 25.5002C80.315 25.2072 81.3371 24.6546 82.1816 23.8899C83.5697 22.6118 84.859 20.6694 86.1648 17.9923L89.8864 10.1866L86.6858 10.1846Z" fill="white"></path>
  <path d="M15.1031 3.34083C15.1031 3.34083 14.8209 3.41933 14.3575 3.55821C14.2604 3.26401 14.1392 2.97793 13.995 2.70276C13.4719 1.71849 12.6872 1.18911 11.7625 1.18911C11.6933 1.18667 11.6241 1.19276 11.5565 1.20723C11.538 1.16898 11.4968 1.14886 11.4762 1.1086C11.2814 0.900243 11.0409 0.737684 10.7727 0.633107C10.5044 0.528529 10.2155 0.484647 9.92742 0.50475C8.72464 0.528904 7.52804 1.37429 6.55181 2.88794C5.87391 3.93543 5.41539 5.10396 5.2028 6.32585C3.82084 6.74251 2.85079 7.03839 2.8302 7.05651C2.12583 7.2739 2.10524 7.29402 2.02491 7.93612C1.96725 8.43328 0.113647 22.2755 0.113647 22.2755L15.3234 24.8439V3.30661C15.2494 3.31393 15.1758 3.32535 15.1031 3.34083ZM11.5812 4.4036C10.776 4.6391 9.89241 4.91486 9.02534 5.17049C9.25583 4.26521 9.69704 3.42415 10.3146 2.71282C10.5643 2.45638 10.8568 2.24333 11.1796 2.08281C11.5215 2.79132 11.6018 3.75346 11.5812 4.4036ZM9.93154 1.29378C10.1853 1.28643 10.4362 1.34773 10.6565 1.47091C10.3047 1.65702 9.98553 1.89688 9.71117 2.18144C8.94501 2.98657 8.36216 4.24459 8.12119 5.44423L6.00809 6.07425C6.45089 4.18621 8.08 1.33605 9.93154 1.29378ZM7.59806 12.1107C7.67839 13.3687 11.0787 13.6445 11.2805 16.6134C11.4206 18.9523 10.0119 20.5465 7.98526 20.6632C5.52615 20.8182 4.17715 19.4092 4.17715 19.4092L4.70027 17.2455C4.70027 17.2455 6.04928 18.2519 7.13467 18.1714C7.26506 18.1681 7.39344 18.1392 7.51216 18.0864C7.63089 18.0336 7.73753 17.958 7.82574 17.8641C7.91395 17.7702 7.98192 17.6599 8.0256 17.5398C8.06928 17.4197 8.08778 17.2922 8.08 17.1649C7.97908 15.5144 5.19663 15.613 5.02362 12.8998C4.86092 10.6172 6.39117 8.31855 9.77089 8.10117C11.0787 8.02267 11.7419 8.33667 11.7419 8.33667L10.9778 11.1667C10.3807 10.9211 9.73368 10.8136 9.08712 10.8527C7.59806 10.9554 7.57747 11.8752 7.59806 12.1107ZM12.3865 4.16609C12.3947 3.43699 12.272 2.71214 12.024 2.02444C12.9488 2.20156 13.3916 3.20395 13.5934 3.81384C13.2309 3.91046 12.8293 4.02921 12.3865 4.16609Z" fill="white"></path>
  <path d="M15.7864 24.8115L22.103 23.2777C22.103 23.2777 19.3865 5.31927 19.3659 5.20857C19.3596 5.15491 19.334 5.10519 19.2936 5.06831C19.2532 5.03143 19.2007 5.0098 19.1455 5.00728C19.0446 5.00728 17.2754 4.96904 17.2754 4.96904C17.2754 4.96904 16.188 3.94652 15.7864 3.56006V24.8115Z" fill="white"></path>
</svg>
